<?xml version="1.0" encoding="UTF-8"?>
<svg width="532" height="404" version="1.1" viewBox="0 0 532 404" xml:space="preserve" xmlns="http://www.w3.org/2000/svg">
<style type="text/css">
	.st0{fill:#699CFB;}
</style>
<g transform="translate(10,-54)" fill="#699cfb"><path class="st0" d="m10.7 85.2c70.3 59.5 193.6 164.2 229.8 196.8 4.9 4.4 10.1 6.6 15.5 6.6s10.6-2.2 15.5-6.6c36.2-32.6 159.5-137.3 229.8-196.8 4.4-3.7 5-10.2 1.5-14.7-8.2-10.5-20.4-16.5-33.5-16.5h-426.6c-13.1 0-25.3 6-33.5 16.4-3.6 4.6-2.9 11.1 1.5 14.8z"/><path class="st0" d="m515.8 127.4c-3.8-1.8-8.2-1.1-11.4 1.5-46 39-106.7 90.6-152.4 129.9-2.4 2.1-3.8 5.1-3.7 8.3s1.5 6.2 4 8.1c42.5 34 106.5 80.8 152.8 114.1 1.8 1.3 4 2 6.2 2 1.7 0 3.3-0.4 4.9-1.2 3.6-1.8 5.8-5.5 5.8-9.5v-243.5c0-4.2-2.4-8-6.2-9.7z"/><path class="st0" d="m6.9 389.4c46.2-33.3 110.3-80.1 152.8-114.1 2.5-2 3.9-5 4-8.1 0.1-3.2-1.3-6.2-3.7-8.3-45.8-39.4-106.4-90.9-152.4-130-3.2-2.7-7.6-3.3-11.4-1.5-3.8 1.7-6.2 5.5-6.2 9.7v243.6c0 4 2.2 7.7 5.8 9.5 1.5 0.8 3.2 1.2 4.9 1.2 2.2 0 4.4-0.7 6.2-2z"/><path class="st0" d="m498.9 428.4c-44.7-31.9-126.9-91.5-176-131.4-4-3.3-9.8-3.2-13.7 0.2-9.6 8.4-17.7 15.5-23.4 20.6-17.6 15.9-41.9 15.9-59.5 0-5.7-5.1-13.8-12.2-23.4-20.6-3.9-3.4-9.7-3.5-13.7-0.2-48.9 39.7-131.3 99.4-176 131.4-2.5 1.8-4.1 4.6-4.4 7.6-0.3 3.1 0.7 6.1 2.8 8.3 8 8.7 19.3 13.7 31.1 13.7h426.7c11.7 0 23.1-5 31.2-13.7 2.1-2.2 3.1-5.3 2.8-8.3-0.4-3.1-2-5.8-4.5-7.6z"/></g>
</svg>
