<?xml version="1.0" encoding="utf-8"?>
<!-- Generator: Adobe Illustrator 23.0.1, SVG Export Plug-In . SVG Version: 6.00 Build 0)  -->
<svg version="1.1" id="Layer_1" xmlns="http://www.w3.org/2000/svg" xmlns:xlink="http://www.w3.org/1999/xlink" x="0px" y="0px"
	 viewBox="0 0 512 512" style="enable-background:new 0 0 512 512;" xml:space="preserve">
<style type="text/css">
	.st0{fill:#25BAB2;}
</style>
<g>
	<g>
		<g>
			<path class="st0" d="M10.7,95.2C81,154.7,204.3,259.4,240.5,292c4.9,4.4,10.1,6.6,15.5,6.6c5.4,0,10.6-2.2,15.5-6.6
				C307.7,259.4,431,154.7,501.3,95.2c4.4-3.7,5-10.2,1.5-14.7C494.6,70,482.4,64,469.3,64H42.7c-13.1,0-25.3,6-33.5,16.4
				C5.6,85,6.3,91.5,10.7,95.2z"/>
			<path class="st0" d="M505.8,127.4c-3.8-1.8-8.2-1.1-11.4,1.5c-46,39-106.7,90.6-152.4,129.9c-2.4,2.1-3.8,5.1-3.7,8.3
				c0.1,3.2,1.5,6.2,4,8.1c42.5,34,106.5,80.8,152.8,114.1c1.8,1.3,4,2,6.2,2c1.7,0,3.3-0.4,4.9-1.2c3.6-1.8,5.8-5.5,5.8-9.5V137.1
				C512,132.9,509.6,129.1,505.8,127.4z"/>
			<path class="st0" d="M16.9,389.4c46.2-33.3,110.3-80.1,152.8-114.1c2.5-2,3.9-5,4-8.1c0.1-3.2-1.3-6.2-3.7-8.3
				C124.2,219.5,63.6,168,17.6,128.9c-3.2-2.7-7.6-3.3-11.4-1.5c-3.8,1.7-6.2,5.5-6.2,9.7v243.6c0,4,2.2,7.7,5.8,9.5
				c1.5,0.8,3.2,1.2,4.9,1.2C12.9,391.4,15.1,390.7,16.9,389.4z"/>
			<path class="st0" d="M498.9,418.4c-44.7-31.9-126.9-91.5-176-131.4c-4-3.3-9.8-3.2-13.7,0.2c-9.6,8.4-17.7,15.5-23.4,20.6
				c-17.6,15.9-41.9,15.9-59.5,0c-5.7-5.1-13.8-12.2-23.4-20.6c-3.9-3.4-9.7-3.5-13.7-0.2c-48.9,39.7-131.3,99.4-176,131.4
				c-2.5,1.8-4.1,4.6-4.4,7.6c-0.3,3.1,0.7,6.1,2.8,8.3C19.6,443,30.9,448,42.7,448h426.7c11.7,0,23.1-5,31.2-13.7
				c2.1-2.2,3.1-5.3,2.8-8.3C503,422.9,501.4,420.2,498.9,418.4z"/>
		</g>
	</g>
</g>
</svg>
