<?xml version="1.0" encoding="utf-8"?>
<!-- Generator: Adobe Illustrator 23.0.1, SVG Export Plug-In . SVG Version: 6.00 Build 0)  -->
<svg version="1.1" id="Layer_1" xmlns="http://www.w3.org/2000/svg" xmlns:xlink="http://www.w3.org/1999/xlink" x="0px" y="0px"
	 viewBox="0 0 1920 764" style="enable-background:new 0 0 1920 764;" xml:space="preserve">
<style type="text/css">
	.st0{clip-path:url(#SVGID_2_);fill-rule:evenodd;clip-rule:evenodd;fill:#8385C3;}
	.st1{clip-path:url(#SVGID_2_);fill-rule:evenodd;clip-rule:evenodd;fill:#5053A7;}
</style>
<g>
	<defs>
		<rect id="SVGID_1_" width="1920" height="764"/>
	</defs>
	<clipPath id="SVGID_2_">
		<use xlink:href="#SVGID_1_"  style="overflow:visible;"/>
	</clipPath>
	<polygon class="st0" points="-1864.5,395.41 -1845.45,384.02 -1845.45,391.89 -1834.22,391.89 -1834.22,403.82 -1827.12,403.82 
		-1827.12,411.93 -1819.62,411.93 -1819.62,451.74 -1812.34,451.74 -1812.34,471.53 -1805.05,471.53 -1805.05,328.47 
		-1786.51,328.47 -1786.51,280.77 -1771.92,280.77 -1771.92,268.85 -1701.7,233.08 -1631.9,268.85 -1631.9,280.77 -1620.86,280.77 
		-1620.86,328.47 -1609.83,332.29 -1609.83,427.66 -1598.79,427.66 -1587.75,463.42 -1587.75,376.17 -1569.43,376.17 
		-1569.43,348.24 -1562.13,348.24 -1562.13,326.68 -1414.4,325.37 -1414.4,343.96 -1403.79,343.96 -1403.79,376.17 -1392.53,376.17 
		-1392.53,455.8 -1381.71,455.8 -1381.71,38.22 -1272.62,7.47 -1186.48,30.6 -1186.26,360.41 -1182.3,368.28 -1168.16,320.58 
		-1153.36,368.28 -1149.61,356.13 -1146.06,379.96 -1146.06,439.59 -1142.54,443.64 -1142.54,527.08 -1135.02,527.08 
		-1135.02,423.83 -1127.51,423.83 -1127.51,186.14 -1009.82,158.24 -928.76,182.11 -928.76,344.44 -914.19,360.17 -914.19,388.07 
		-906.69,388.07 -906.69,408.11 -903.14,408.11 -903.14,507.3 -895.87,507.3 -895.87,475.59 -840.44,475.59 -840.44,384.02 
		-814.81,384.02 -814.81,340.38 -810.83,340.38 -810.83,324.64 -807.1,324.64 -807.1,312.47 -693.35,308.43 -693.35,445.54 
		-641.94,445.47 -641.94,461.55 -601.27,439.59 -590.44,439.59 -590.44,372.1 -472.28,372.65 -472.51,411.93 -468.99,411.93 
		-468.99,431.94 -457.72,431.94 -457.72,443.64 -450.44,443.64 -449.87,332 -306.89,332.29 -306.89,479.42 -285.12,479.14 
		-285.36,359.99 -236.89,360.17 -236.89,403.82 -229.59,403.82 -229.59,384.02 -225.84,384.02 -225.84,347.06 -222.08,347.06 
		-203.76,292.69 -196.48,236.66 -188.08,292.69 -168.63,348.24 -163.34,348.24 -163.34,368.28 -159.61,368.28 -159.61,400 
		-156.55,400 -152.63,394.92 -141.25,394.92 -141.25,388.07 -137.5,388.07 -137.5,356.13 -133.75,356.13 -121.39,203.73 
		-108.13,353.01 -100.62,356.13 -100.62,368.28 -82.06,368.28 -82.06,384.02 -37.91,384.02 -37.91,395.94 24.39,415.73 
		24.39,467.48 42.94,467.48 42.94,479.93 62.89,479.93 62.89,466.19 105.12,466.19 105.12,374.66 199.6,374.66 199.6,427.35 
		203.69,427.08 203.69,409.83 210.07,409.83 212.22,324.82 254.76,285.77 295.2,327.12 295.2,466.19 346.24,497.95 346.24,338.61 
		375.12,338.61 375.12,36.86 505.58,36.86 505.58,540.17 548.44,540.17 548.44,36.86 668.86,36.86 668.86,504.71 685.14,504.71 
		685.14,420.26 757.08,420.26 757.08,423.63 766.4,423.63 766.75,497.95 799.32,497.95 799.32,522.6 831.86,522.6 831.86,533.92 
		893.8,533.92 893.8,515.51 894.15,515.51 894.03,326.87 966.39,326.87 966.1,524.01 1014.56,524.12 1014.56,413.5 1089.33,413.5 
		1089.33,499.43 1113.16,499.47 1113.16,484.53 1118.74,484.56 1118.74,318.25 1154.55,331.54 1154.59,323.19 1171.09,323.15 
		1171.09,243.92 1175.38,239.46 1175.38,216.75 1190.03,215.9 1225.87,140.81 1228.75,0.49 1231.59,140.39 1264.77,219.15 
		1280.65,219.15 1280.65,241.69 1284.64,243.92 1284.64,322.88 1297.23,323.15 1297.23,441.54 1317.39,441.54 1317.39,395.94 
		1389.02,395.94 1389.02,546.93 1402.49,546.93 1402.49,500.59 1441.28,501.14 1441.28,469.57 1493.53,469.57 1493.53,300.87 
		1512.92,286.82 1512.92,237.52 1542.33,219.94 1543.97,141.53 1547.13,219.88 1578.03,236.14 1578.29,286.82 1597.69,297.29 
		1597.69,515.51 1643.36,515.51 1643.36,406.41 1675.91,406.41 1675.91,360.47 1705.31,360.47 1705.31,265.53 1776.95,265.53 
		1776.95,416.88 1812.93,416.88 1812.93,329.04 1894.27,329.04 1975.61,297.29 1975.61,444.92 2017.5,485.41 2017.5,655.5 
		-1864.5,655.5 -1864.5,395.41 	"/>
	<polygon class="st1" points="-2.5,534.07 16.02,523.98 16.02,530.96 26.93,530.96 26.93,541.53 33.83,541.53 33.83,548.72 
		41.12,548.72 41.12,584 48.2,584 48.2,601.53 55.28,601.53 55.28,474.75 73.3,474.75 73.3,432.48 87.48,432.48 87.48,421.92 
		155.73,390.23 223.57,421.92 223.57,432.48 234.3,432.48 234.3,474.75 245.02,478.14 245.02,562.65 255.75,562.65 266.48,594.35 
		266.48,517.02 284.29,517.02 284.29,492.27 291.38,492.27 291.38,473.17 434.96,472 434.96,488.48 445.28,488.48 445.28,517.02 
		456.22,517.02 456.22,587.6 466.74,587.6 466.74,217.54 572.76,190.29 656.48,210.79 656.7,503.06 660.55,510.03 674.29,467.76 
		688.67,510.03 692.32,499.26 695.76,520.38 695.76,573.23 699.19,576.81 699.19,650.76 706.49,650.76 706.49,559.26 713.8,559.26 
		713.8,348.63 828.18,323.9 906.96,345.05 906.96,488.91 921.12,502.85 921.12,527.57 928.41,527.57 928.41,545.33 931.87,545.33 
		931.87,633.23 938.93,633.23 938.93,605.13 992.81,605.13 992.81,523.98 1017.71,523.98 1017.71,485.31 1021.59,485.31 
		1021.59,471.36 1025.21,471.36 1025.21,460.58 1135.77,456.99 1135.77,578.5 1185.73,578.44 1185.73,592.69 1225.26,573.23 
		1235.79,573.23 1235.79,513.42 1350.63,513.91 1350.41,548.72 1353.82,548.72 1353.82,566.45 1364.78,566.45 1364.78,576.81 
		1371.86,576.81 1372.41,477.88 1511.37,478.14 1511.37,608.52 1532.53,608.27 1532.3,502.69 1579.41,502.85 1579.41,541.53 
		1586.5,541.53 1586.5,523.98 1590.15,523.98 1590.15,491.23 1593.8,491.23 1611.61,443.04 1618.68,393.39 1626.85,443.04 
		1645.76,492.27 1650.9,492.27 1650.9,510.03 1654.52,510.03 1654.52,538.14 1657.49,538.14 1661.3,533.64 1672.36,533.64 
		1672.36,527.57 1676.01,527.57 1676.01,499.26 1679.65,499.26 1691.66,364.21 1704.55,496.5 1711.86,499.26 1711.86,510.03 
		1729.89,510.03 1729.89,523.98 1772.8,523.98 1772.8,534.54 1833.35,552.08 1833.35,597.95 1851.38,597.95 1851.38,608.98 
		1870.78,608.98 1870.78,596.8 1911.82,596.8 1911.82,515.69 2003.64,515.69 2003.64,562.38 2007.62,562.14 2007.62,546.86 
		2013.82,546.86 2015.9,471.52 2057.26,436.92 2096.56,473.56 2096.56,596.8 2146.17,624.94 2146.17,483.74 2174.24,483.74 
		2174.24,216.33 2301.03,216.33 2301.03,662.36 2342.68,662.36 2342.68,216.33 2459.73,216.33 2459.73,630.94 2475.55,630.94 
		2475.55,556.1 2545.47,556.1 2545.47,559.08 2554.53,559.08 2554.87,624.94 2586.52,624.94 2586.52,646.79 2618.15,646.79 
		2618.15,656.82 2678.35,656.82 2678.35,640.5 2678.69,640.5 2678.57,473.34 2748.9,473.34 2748.62,648.04 2795.72,648.13 
		2795.72,550.1 2868.39,550.1 2868.39,626.25 2891.55,626.29 2891.55,613.05 2896.97,613.07 2896.97,465.7 2931.78,477.47 
		2931.82,470.08 2947.85,470.04 2947.85,399.83 2952.03,395.88 2952.03,375.75 2966.26,374.99 3001.1,308.45 3003.9,184.1 
		3006.66,308.08 3038.91,377.87 3054.34,377.87 3054.34,397.86 3058.22,399.83 3058.22,469.8 3070.46,470.04 3070.46,574.95 
		3090.05,574.95 3090.05,534.54 3159.67,534.54 3159.67,668.35 3172.75,668.35 3172.75,627.29 3210.45,627.77 3210.45,599.79 
		3261.24,599.79 3261.24,450.29 3280.09,437.85 3280.09,394.15 3308.67,378.58 3310.27,309.09 3313.34,378.53 3343.37,392.94 
		3343.62,437.85 3362.48,447.13 3362.48,640.5 3406.87,640.5 3406.87,543.82 3438.5,543.82 3438.5,503.11 3467.08,503.11 
		3467.08,418.98 3536.7,418.98 3536.7,553.1 3571.68,553.1 3571.68,475.26 3650.73,475.26 3729.79,447.13 3729.79,577.95 
		3770.5,613.83 3770.5,764.56 -2.5,764.56 -2.5,534.07 	"/>
</g>
</svg>
