<?xml version="1.0" encoding="utf-8"?>
<!-- Generator: Adobe Illustrator 23.0.1, SVG Export Plug-In . SVG Version: 6.00 Build 0)  -->
<svg version="1.1" id="Layer_1" xmlns="http://www.w3.org/2000/svg" xmlns:xlink="http://www.w3.org/1999/xlink" x="0px" y="0px"
	 viewBox="0 0 1920 764" style="enable-background:new 0 0 1920 764;" xml:space="preserve">
<style type="text/css">
	.st0{clip-path:url(#SVGID_2_);fill-rule:evenodd;clip-rule:evenodd;fill:#8385C3;}
	.st1{clip-path:url(#SVGID_4_);fill-rule:evenodd;clip-rule:evenodd;fill:#5053A7;}
	.st2{fill:#F7BF33;}
	.st3{fill:#DD8D00;}
	.st4{fill:#E3EDFF;stroke:#5E3322;stroke-width:8;stroke-miterlimit:10;}
	.st5{fill:#5E3322;}
	.st6{fill:none;stroke:#5E3322;stroke-width:8;stroke-miterlimit:10;}
	.st7{fill:#E3EDFF;}
	.st8{fill:#EACAFF;}
	.st9{fill:#CB7BFF;}
	.st10{clip-path:url(#SVGID_6_);fill:#F8F9FA;}
	.st11{fill:none;stroke:#000000;stroke-width:2;stroke-miterlimit:10;}
	.st12{fill:#212934;stroke:#000000;stroke-miterlimit:10;}
	.st13{fill:#985CBF;}
	.st14{fill:#F77C9F;}
	.st15{fill:#FFB9BB;}
	.st16{fill:#E3EDFF;stroke:#80002D;stroke-width:8;stroke-miterlimit:10;}
	.st17{fill:#80002D;}
	.st18{fill:none;stroke:#80002D;stroke-width:8;stroke-miterlimit:10;}
	.st19{fill:#63803A;}
	.st20{fill:#D1FF8F;}
	.st21{clip-path:url(#SVGID_8_);fill:#F8F9FA;}
	.st22{fill:#94BF56;}
</style>
<g>
	<g>
		<g>
			<defs>
				<rect id="SVGID_1_" width="1920" height="764"/>
			</defs>
			<clipPath id="SVGID_2_">
				<use xlink:href="#SVGID_1_"  style="overflow:visible;"/>
			</clipPath>
			<polygon class="st0" points="-1864.5,395.4 -1845.4,384 -1845.4,391.9 -1834.2,391.9 -1834.2,403.8 -1827.1,403.8 -1827.1,411.9 
				-1819.6,411.9 -1819.6,451.7 -1812.3,451.7 -1812.3,471.5 -1805.1,471.5 -1805.1,328.5 -1786.5,328.5 -1786.5,280.8 
				-1771.9,280.8 -1771.9,268.9 -1701.7,233.1 -1631.9,268.9 -1631.9,280.8 -1620.9,280.8 -1620.9,328.5 -1609.8,332.3 
				-1609.8,427.7 -1598.8,427.7 -1587.8,463.4 -1587.8,376.2 -1569.4,376.2 -1569.4,348.2 -1562.1,348.2 -1562.1,326.7 
				-1414.4,325.4 -1414.4,344 -1403.8,344 -1403.8,376.2 -1392.5,376.2 -1392.5,455.8 -1381.7,455.8 -1381.7,38.2 -1272.6,7.5 
				-1186.5,30.6 -1186.3,360.4 -1182.3,368.3 -1168.2,320.6 -1153.4,368.3 -1149.6,356.1 -1146.1,380 -1146.1,439.6 -1142.5,443.6 
				-1142.5,527.1 -1135,527.1 -1135,423.8 -1127.5,423.8 -1127.5,186.1 -1009.8,158.2 -928.8,182.1 -928.8,344.4 -914.2,360.2 
				-914.2,388.1 -906.7,388.1 -906.7,408.1 -903.1,408.1 -903.1,507.3 -895.9,507.3 -895.9,475.6 -840.4,475.6 -840.4,384 
				-814.8,384 -814.8,340.4 -810.8,340.4 -810.8,324.6 -807.1,324.6 -807.1,312.5 -693.3,308.4 -693.3,445.5 -641.9,445.5 
				-641.9,461.5 -601.3,439.6 -590.4,439.6 -590.4,372.1 -472.3,372.6 -472.5,411.9 -469,411.9 -469,431.9 -457.7,431.9 
				-457.7,443.6 -450.4,443.6 -449.9,332 -306.9,332.3 -306.9,479.4 -285.1,479.1 -285.4,360 -236.9,360.2 -236.9,403.8 
				-229.6,403.8 -229.6,384 -225.8,384 -225.8,347.1 -222.1,347.1 -203.8,292.7 -196.5,236.7 -188.1,292.7 -168.6,348.2 
				-163.3,348.2 -163.3,368.3 -159.6,368.3 -159.6,400 -156.6,400 -152.6,394.9 -141.2,394.9 -141.2,388.1 -137.5,388.1 
				-137.5,356.1 -133.8,356.1 -121.4,203.7 -108.1,353 -100.6,356.1 -100.6,368.3 -82.1,368.3 -82.1,384 -37.9,384 -37.9,395.9 
				24.4,415.7 24.4,467.5 42.9,467.5 42.9,479.9 62.9,479.9 62.9,466.2 105.1,466.2 105.1,374.7 199.6,374.7 199.6,427.4 
				203.7,427.1 203.7,409.8 210.1,409.8 212.2,324.8 254.8,285.8 295.2,327.1 295.2,466.2 346.2,498 346.2,338.6 375.1,338.6 
				375.1,36.9 505.6,36.9 505.6,540.2 548.4,540.2 548.4,36.9 668.9,36.9 668.9,504.7 685.1,504.7 685.1,420.3 757.1,420.3 
				757.1,423.6 766.4,423.6 766.8,498 799.3,498 799.3,522.6 831.9,522.6 831.9,533.9 893.8,533.9 893.8,515.5 894.2,515.5 
				894,326.9 966.4,326.9 966.1,524 1014.6,524.1 1014.6,413.5 1089.3,413.5 1089.3,499.4 1113.2,499.5 1113.2,484.5 1118.7,484.6 
				1118.7,318.2 1154.6,331.5 1154.6,323.2 1171.1,323.1 1171.1,243.9 1175.4,239.5 1175.4,216.8 1190,215.9 1225.9,140.8 
				1228.8,0.5 1231.6,140.4 1264.8,219.1 1280.7,219.1 1280.7,241.7 1284.6,243.9 1284.6,322.9 1297.2,323.1 1297.2,441.5 
				1317.4,441.5 1317.4,395.9 1389,395.9 1389,546.9 1402.5,546.9 1402.5,500.6 1441.3,501.1 1441.3,469.6 1493.5,469.6 
				1493.5,300.9 1512.9,286.8 1512.9,237.5 1542.3,219.9 1544,141.5 1547.1,219.9 1578,236.1 1578.3,286.8 1597.7,297.3 
				1597.7,515.5 1643.4,515.5 1643.4,406.4 1675.9,406.4 1675.9,360.5 1705.3,360.5 1705.3,265.5 1776.9,265.5 1776.9,416.9 
				1812.9,416.9 1812.9,329 1894.3,329 1975.6,297.3 1975.6,444.9 2017.5,485.4 2017.5,655.5 -1864.5,655.5 			"/>
		</g>
		<g>
			<defs>
				<rect id="SVGID_3_" width="1920" height="764"/>
			</defs>
			<clipPath id="SVGID_4_">
				<use xlink:href="#SVGID_3_"  style="overflow:visible;"/>
			</clipPath>
			<polygon class="st1" points="-2.5,534.1 16,524 16,531 26.9,531 26.9,541.5 33.8,541.5 33.8,548.7 41.1,548.7 41.1,584 48.2,584 
				48.2,601.5 55.3,601.5 55.3,474.8 73.3,474.8 73.3,432.5 87.5,432.5 87.5,421.9 155.7,390.2 223.6,421.9 223.6,432.5 
				234.3,432.5 234.3,474.8 245,478.1 245,562.7 255.8,562.7 266.5,594.3 266.5,517 284.3,517 284.3,492.3 291.4,492.3 291.4,473.2 
				435,472 435,488.5 445.3,488.5 445.3,517 456.2,517 456.2,587.6 466.7,587.6 466.7,217.5 572.8,190.3 656.5,210.8 656.7,503.1 
				660.5,510 674.3,467.8 688.7,510 692.3,499.3 695.8,520.4 695.8,573.2 699.2,576.8 699.2,650.8 706.5,650.8 706.5,559.3 
				713.8,559.3 713.8,348.6 828.2,323.9 907,345 907,488.9 921.1,502.9 921.1,527.6 928.4,527.6 928.4,545.3 931.9,545.3 
				931.9,633.2 938.9,633.2 938.9,605.1 992.8,605.1 992.8,524 1017.7,524 1017.7,485.3 1021.6,485.3 1021.6,471.4 1025.2,471.4 
				1025.2,460.6 1135.8,457 1135.8,578.5 1185.7,578.4 1185.7,592.7 1225.3,573.2 1235.8,573.2 1235.8,513.4 1350.6,513.9 
				1350.4,548.7 1353.8,548.7 1353.8,566.5 1364.8,566.5 1364.8,576.8 1371.9,576.8 1372.4,477.9 1511.4,478.1 1511.4,608.5 
				1532.5,608.3 1532.3,502.7 1579.4,502.9 1579.4,541.5 1586.5,541.5 1586.5,524 1590.2,524 1590.2,491.2 1593.8,491.2 1611.6,443 
				1618.7,393.4 1626.8,443 1645.8,492.3 1650.9,492.3 1650.9,510 1654.5,510 1654.5,538.1 1657.5,538.1 1661.3,533.6 1672.4,533.6 
				1672.4,527.6 1676,527.6 1676,499.3 1679.7,499.3 1691.7,364.2 1704.6,496.5 1711.9,499.3 1711.9,510 1729.9,510 1729.9,524 
				1772.8,524 1772.8,534.5 1833.3,552.1 1833.3,598 1851.4,598 1851.4,609 1870.8,609 1870.8,596.8 1911.8,596.8 1911.8,515.7 
				2003.6,515.7 2003.6,562.4 2007.6,562.1 2007.6,546.9 2013.8,546.9 2015.9,471.5 2057.3,436.9 2096.6,473.6 2096.6,596.8 
				2146.2,624.9 2146.2,483.7 2174.2,483.7 2174.2,216.3 2301,216.3 2301,662.4 2342.7,662.4 2342.7,216.3 2459.7,216.3 
				2459.7,630.9 2475.6,630.9 2475.6,556.1 2545.5,556.1 2545.5,559.1 2554.5,559.1 2554.9,624.9 2586.5,624.9 2586.5,646.8 
				2618.1,646.8 2618.1,656.8 2678.4,656.8 2678.4,640.5 2678.7,640.5 2678.6,473.3 2748.9,473.3 2748.6,648 2795.7,648.1 
				2795.7,550.1 2868.4,550.1 2868.4,626.2 2891.6,626.3 2891.6,613 2897,613.1 2897,465.7 2931.8,477.5 2931.8,470.1 2947.9,470 
				2947.9,399.8 2952,395.9 2952,375.8 2966.3,375 3001.1,308.5 3003.9,184.1 3006.7,308.1 3038.9,377.9 3054.3,377.9 3054.3,397.9 
				3058.2,399.8 3058.2,469.8 3070.5,470 3070.5,575 3090.1,575 3090.1,534.5 3159.7,534.5 3159.7,668.3 3172.8,668.3 3172.8,627.3 
				3210.4,627.8 3210.4,599.8 3261.2,599.8 3261.2,450.3 3280.1,437.9 3280.1,394.1 3308.7,378.6 3310.3,309.1 3313.3,378.5 
				3343.4,392.9 3343.6,437.9 3362.5,447.1 3362.5,640.5 3406.9,640.5 3406.9,543.8 3438.5,543.8 3438.5,503.1 3467.1,503.1 
				3467.1,419 3536.7,419 3536.7,553.1 3571.7,553.1 3571.7,475.3 3650.7,475.3 3729.8,447.1 3729.8,578 3770.5,613.8 3770.5,764.6 
				-2.5,764.6 			"/>
		</g>
	</g>
</g>
<g>
	<rect x="1613.9" y="206.9" class="st2" width="306.6" height="557.6"/>
	<rect x="1582.1" y="153.5" class="st3" width="338.4" height="53.4"/>
	<rect x="1582.1" y="439.7" class="st3" width="338.4" height="26.1"/>
	<rect x="1582.1" y="698.6" class="st3" width="338.4" height="26.1"/>
	<rect x="1804.1" y="507.3" class="st4" width="87.4" height="142"/>
	<rect x="1791" y="641.8" class="st5" width="113.6" height="15.9"/>
	<line class="st6" x1="1847.8" y1="510.1" x2="1847.8" y2="647.5"/>
	<line class="st6" x1="1892.1" y1="578.2" x2="1804.7" y2="578.2"/>
	<rect x="1804.1" y="248.3" class="st4" width="87.4" height="142"/>
	<rect x="1791" y="382.9" class="st5" width="113.6" height="15.9"/>
	<line class="st6" x1="1847.8" y1="251.2" x2="1847.8" y2="388.6"/>
	<line class="st6" x1="1892.1" y1="319.3" x2="1804.7" y2="319.3"/>
	<rect x="1670.2" y="509.6" class="st7" width="87.4" height="47.1"/>
	<rect x="1669.7" y="556.7" class="st8" width="87.4" height="87.5"/>
	<rect x="1670.2" y="507.3" class="st6" width="87.4" height="142"/>
	<rect x="1657.2" y="641.9" class="st5" width="113.6" height="15.9"/>
	<line class="st6" x1="1713.9" y1="510.2" x2="1713.9" y2="560.1"/>
	<line class="st6" x1="1757.1" y1="560.1" x2="1669.7" y2="560.1"/>
	<path class="st9" d="M1759.7,552.2c0,0-26.3,10.5-33.1,44.8c-4.1-1.4-8.5-2.2-13.2-2.2c-5.4,0-10.5,1-15,2.8l0,0
		c0.5-24.1-29.6-45.4-29.6-45.4s-2.9,34.8,19.3,51.9c-5,4.7-8.1,10.7-8.1,17.4c0,14.7,14.9,26.7,33.4,26.7s33.4-11.9,33.4-26.7
		c0-6.1-2.6-11.8-6.9-16.3C1761.5,586.4,1759.7,552.2,1759.7,552.2z"/>
	<g>
		<g>
			<defs>
				<path id="SVGID_5_" d="M1759.7,552.2c0,0-26.3,10.5-33.1,44.8c-4.1-1.4-8.5-2.2-13.2-2.2c-5.4,0-10.5,1-15,2.8l0,0
					c0.5-24.1-29.6-45.4-29.6-45.4s-2.9,34.8,19.3,51.9c-5,4.7-8.1,10.7-8.1,17.4c0,14.7,14.9,26.7,33.4,26.7s33.4-11.9,33.4-26.7
					c0-6.1-2.6-11.8-6.9-16.3C1761.5,586.4,1759.7,552.2,1759.7,552.2z"/>
			</defs>
			<clipPath id="SVGID_6_">
				<use xlink:href="#SVGID_5_"  style="overflow:visible;"/>
			</clipPath>
			<path class="st10" d="M1722.9,630.9c-3.2,0-6.2,0.7-8.7,1.8c-2.4-1.2-5.4-1.8-8.7-1.8c-8.3,0-15,4.4-15,9.9s6.7,9.9,15,9.9
				c3.2,0,6.2-0.7,8.7-1.8c2.4,1.2,5.4,1.8,8.7,1.8c8.3,0,15-4.4,15-9.9S1731.2,630.9,1722.9,630.9z"/>
		</g>
	</g>
	<g id="neutral1_1_">
		<path class="st11" d="M1707.1,639.7c0,0,6.7,1,6.9-4.8s0,0.6,0,0.6s0.3,4.3,6.7,4.2"/>
		<circle class="st12" cx="1702.5" cy="625.4" r="1.7"/>
		<circle class="st12" cx="1724.8" cy="625.4" r="1.7"/>
		<ellipse class="st12" cx="1714" cy="633.2" rx="2.5" ry="2.2"/>
	</g>
	<g id="neutral2_1_">
		<path class="st13" d="M1672.5,560.6c0,0,21.6,18.8,19.8,38.7C1676.4,597.8,1672.5,560.6,1672.5,560.6z"/>
		<path class="st13" d="M1754.3,560.6c0,0-22.4,17.7-21.6,37.7C1748.6,597.5,1754.3,560.6,1754.3,560.6z"/>
	</g>
	<rect x="0.1" y="200.9" class="st14" width="306.6" height="557.6"/>
	<rect x="0.1" y="147.5" class="st15" width="338.4" height="53.4"/>
	<rect x="0.1" y="433.7" class="st15" width="338.4" height="26.1"/>
	<rect x="0.1" y="692.6" class="st15" width="338.4" height="26.1"/>
	<rect x="163" y="501.3" class="st16" width="87.4" height="142"/>
	<rect x="150" y="635.8" class="st17" width="113.6" height="15.9"/>
	<line class="st18" x1="206.8" y1="504.1" x2="206.8" y2="641.5"/>
	<line class="st18" x1="162.5" y1="572.2" x2="249.9" y2="572.2"/>
	<rect x="29" y="501.3" class="st16" width="87.4" height="142"/>
	<rect x="16" y="635.8" class="st17" width="113.6" height="15.9"/>
	<line class="st18" x1="72.8" y1="504.1" x2="72.8" y2="641.5"/>
	<line class="st18" x1="28.5" y1="572.2" x2="115.9" y2="572.2"/>
	<rect x="29" y="242.3" class="st16" width="87.4" height="142"/>
	<rect x="16" y="376.9" class="st17" width="113.6" height="15.9"/>
	<line class="st18" x1="72.8" y1="245.2" x2="72.8" y2="382.6"/>
	<line class="st18" x1="28.5" y1="313.3" x2="115.9" y2="313.3"/>
	<rect x="161.9" y="244.6" class="st7" width="87.4" height="47.1"/>
	<rect x="162.5" y="291.7" class="st19" width="87.4" height="87.4"/>
	<rect x="161.9" y="242.3" class="st18" width="87.4" height="142"/>
	<rect x="148.8" y="376.9" class="st17" width="113.6" height="15.9"/>
	<line class="st18" x1="205.6" y1="245.2" x2="205.6" y2="295.1"/>
	<line class="st18" x1="162.5" y1="295.1" x2="249.9" y2="295.1"/>
	<path class="st20" d="M159.9,287.2c0,0,26.3,10.5,33.1,44.8c4.1-1.4,8.5-2.2,13.2-2.2c5.4,0,10.5,1,15,2.8l0,0
		c-0.5-24.1,29.6-45.4,29.6-45.4s2.9,34.8-19.3,51.9c5,4.7,8.1,10.7,8.1,17.4c0,14.7-14.9,26.6-33.4,26.6s-33.4-11.9-33.4-26.6
		c0-6.1,2.6-11.8,6.9-16.3C158,321.4,159.9,287.2,159.9,287.2z"/>
	<g>
		<g>
			<defs>
				<path id="SVGID_7_" d="M159.9,287.2c0,0,26.3,10.5,33.1,44.8c4.1-1.4,8.5-2.2,13.2-2.2c5.4,0,10.5,1,15,2.8l0,0
					c-0.5-24.1,29.6-45.4,29.6-45.4s2.9,34.8-19.3,51.9c5,4.7,8.1,10.7,8.1,17.4c0,14.7-14.9,26.6-33.4,26.6s-33.4-11.9-33.4-26.6
					c0-6.1,2.6-11.8,6.9-16.3C158,321.4,159.9,287.2,159.9,287.2z"/>
			</defs>
			<clipPath id="SVGID_8_">
				<use xlink:href="#SVGID_7_"  style="overflow:visible;"/>
			</clipPath>
			<path class="st21" d="M196.6,365.9c3.2,0,6.2,0.7,8.7,1.8c2.4-1.1,5.4-1.8,8.7-1.8c8.3,0,15,4.4,15,9.9c0,5.5-6.7,9.9-15,9.9
				c-3.2,0-6.2-0.7-8.7-1.8c-2.4,1.1-5.4,1.8-8.7,1.8c-8.3,0-15-4.4-15-9.9C181.7,370.3,188.4,365.9,196.6,365.9z"/>
		</g>
	</g>
	<g id="neutral1_2_">
		<path class="st11" d="M212.5,374.7c0,0-6.7,1-6.9-4.8c-0.3-5.7,0,0.6,0,0.6s-0.3,4.3-6.6,4.2"/>
		<circle cx="217" cy="360.4" r="1.7"/>
		<circle cx="194.8" cy="360.4" r="1.7"/>
		<ellipse cx="205.6" cy="368.2" rx="2.5" ry="2.2"/>
	</g>
	<g id="neutral2_2_">
		<path class="st22" d="M247.1,295.6c0,0-21.6,18.8-19.8,38.7C243.1,332.8,247.1,295.6,247.1,295.6z"/>
		<path class="st22" d="M165.3,295.6c0,0,22.4,17.7,21.6,37.7C171,332.5,165.3,295.6,165.3,295.6z"/>
	</g>
	<rect x="1668.1" y="248.3" class="st4" width="87.4" height="142"/>
	<rect x="1655" y="382.9" class="st5" width="113.6" height="15.9"/>
	<line class="st6" x1="1711.8" y1="251.2" x2="1711.8" y2="388.6"/>
	<line class="st6" x1="1756.1" y1="319.3" x2="1668.7" y2="319.3"/>
</g>
</svg>
