<?xml version="1.0" encoding="utf-8"?>
<!-- Generator: Adobe Illustrator 23.0.1, SVG Export Plug-In . SVG Version: 6.00 Build 0)  -->
<svg version="1.1" id="Layer_1" xmlns="http://www.w3.org/2000/svg" xmlns:xlink="http://www.w3.org/1999/xlink" x="0px" y="0px"
	 viewBox="0 0 1920 764" style="enable-background:new 0 0 1920 764;" xml:space="preserve">
<style type="text/css">
	.st0{clip-path:url(#SVGID_2_);fill-rule:evenodd;clip-rule:evenodd;fill:#8385C3;}
	.st1{clip-path:url(#SVGID_4_);fill-rule:evenodd;clip-rule:evenodd;fill:#5053A7;}
</style>
<g>
	<g>
		<defs>
			<rect id="SVGID_1_" width="1920" height="764"/>
		</defs>
		<clipPath id="SVGID_2_">
			<use xlink:href="#SVGID_1_"  style="overflow:visible;"/>
		</clipPath>
		<polygon class="st0" points="-1864.5,395.4 -1845.4,384 -1845.4,391.9 -1834.2,391.9 -1834.2,403.8 -1827.1,403.8 -1827.1,411.9 
			-1819.6,411.9 -1819.6,451.7 -1812.3,451.7 -1812.3,471.5 -1805.1,471.5 -1805.1,328.5 -1786.5,328.5 -1786.5,280.8 
			-1771.9,280.8 -1771.9,268.9 -1701.7,233.1 -1631.9,268.9 -1631.9,280.8 -1620.9,280.8 -1620.9,328.5 -1609.8,332.3 
			-1609.8,427.7 -1598.8,427.7 -1587.8,463.4 -1587.8,376.2 -1569.4,376.2 -1569.4,348.2 -1562.1,348.2 -1562.1,326.7 
			-1414.4,325.4 -1414.4,344 -1403.8,344 -1403.8,376.2 -1392.5,376.2 -1392.5,455.8 -1381.7,455.8 -1381.7,38.2 -1272.6,7.5 
			-1186.5,30.6 -1186.3,360.4 -1182.3,368.3 -1168.2,320.6 -1153.4,368.3 -1149.6,356.1 -1146.1,380 -1146.1,439.6 -1142.5,443.6 
			-1142.5,527.1 -1135,527.1 -1135,423.8 -1127.5,423.8 -1127.5,186.1 -1009.8,158.2 -928.8,182.1 -928.8,344.4 -914.2,360.2 
			-914.2,388.1 -906.7,388.1 -906.7,408.1 -903.1,408.1 -903.1,507.3 -895.9,507.3 -895.9,475.6 -840.4,475.6 -840.4,384 
			-814.8,384 -814.8,340.4 -810.8,340.4 -810.8,324.6 -807.1,324.6 -807.1,312.5 -693.3,308.4 -693.3,445.5 -641.9,445.5 
			-641.9,461.5 -601.3,439.6 -590.4,439.6 -590.4,372.1 -472.3,372.6 -472.5,411.9 -469,411.9 -469,431.9 -457.7,431.9 
			-457.7,443.6 -450.4,443.6 -449.9,332 -306.9,332.3 -306.9,479.4 -285.1,479.1 -285.4,360 -236.9,360.2 -236.9,403.8 
			-229.6,403.8 -229.6,384 -225.8,384 -225.8,347.1 -222.1,347.1 -203.8,292.7 -196.5,236.7 -188.1,292.7 -168.6,348.2 
			-163.3,348.2 -163.3,368.3 -159.6,368.3 -159.6,400 -156.6,400 -152.6,394.9 -141.2,394.9 -141.2,388.1 -137.5,388.1 
			-137.5,356.1 -133.8,356.1 -121.4,203.7 -108.1,353 -100.6,356.1 -100.6,368.3 -82.1,368.3 -82.1,384 -37.9,384 -37.9,395.9 
			24.4,415.7 24.4,467.5 42.9,467.5 42.9,479.9 62.9,479.9 62.9,466.2 105.1,466.2 105.1,374.7 199.6,374.7 199.6,427.4 
			203.7,427.1 203.7,409.8 210.1,409.8 212.2,324.8 254.8,285.8 295.2,327.1 295.2,466.2 346.2,498 346.2,338.6 375.1,338.6 
			375.1,36.9 505.6,36.9 505.6,540.2 548.4,540.2 548.4,36.9 668.9,36.9 668.9,504.7 685.1,504.7 685.1,420.3 757.1,420.3 
			757.1,423.6 766.4,423.6 766.8,498 799.3,498 799.3,522.6 831.9,522.6 831.9,533.9 893.8,533.9 893.8,515.5 894.2,515.5 
			894,326.9 966.4,326.9 966.1,524 1014.6,524.1 1014.6,413.5 1089.3,413.5 1089.3,499.4 1113.2,499.5 1113.2,484.5 1118.7,484.6 
			1118.7,318.2 1154.6,331.5 1154.6,323.2 1171.1,323.1 1171.1,243.9 1175.4,239.5 1175.4,216.8 1190,215.9 1225.9,140.8 
			1228.8,0.5 1231.6,140.4 1264.8,219.1 1280.7,219.1 1280.7,241.7 1284.6,243.9 1284.6,322.9 1297.2,323.1 1297.2,441.5 
			1317.4,441.5 1317.4,395.9 1389,395.9 1389,546.9 1402.5,546.9 1402.5,500.6 1441.3,501.1 1441.3,469.6 1493.5,469.6 
			1493.5,300.9 1512.9,286.8 1512.9,237.5 1542.3,219.9 1544,141.5 1547.1,219.9 1578,236.1 1578.3,286.8 1597.7,297.3 
			1597.7,515.5 1643.4,515.5 1643.4,406.4 1675.9,406.4 1675.9,360.5 1705.3,360.5 1705.3,265.5 1776.9,265.5 1776.9,416.9 
			1812.9,416.9 1812.9,329 1894.3,329 1975.6,297.3 1975.6,444.9 2017.5,485.4 2017.5,655.5 -1864.5,655.5 		"/>
	</g>
	<g>
		<defs>
			<rect id="SVGID_3_" width="1920" height="764"/>
		</defs>
		<clipPath id="SVGID_4_">
			<use xlink:href="#SVGID_3_"  style="overflow:visible;"/>
		</clipPath>
		<polygon class="st1" points="-2.5,534.1 16,524 16,531 26.9,531 26.9,541.5 33.8,541.5 33.8,548.7 41.1,548.7 41.1,584 48.2,584 
			48.2,601.5 55.3,601.5 55.3,474.8 73.3,474.8 73.3,432.5 87.5,432.5 87.5,421.9 155.7,390.2 223.6,421.9 223.6,432.5 234.3,432.5 
			234.3,474.8 245,478.1 245,562.7 255.8,562.7 266.5,594.3 266.5,517 284.3,517 284.3,492.3 291.4,492.3 291.4,473.2 435,472 
			435,488.5 445.3,488.5 445.3,517 456.2,517 456.2,587.6 466.7,587.6 466.7,217.5 572.8,190.3 656.5,210.8 656.7,503.1 660.5,510 
			674.3,467.8 688.7,510 692.3,499.3 695.8,520.4 695.8,573.2 699.2,576.8 699.2,650.8 706.5,650.8 706.5,559.3 713.8,559.3 
			713.8,348.6 828.2,323.9 907,345 907,488.9 921.1,502.9 921.1,527.6 928.4,527.6 928.4,545.3 931.9,545.3 931.9,633.2 
			938.9,633.2 938.9,605.1 992.8,605.1 992.8,524 1017.7,524 1017.7,485.3 1021.6,485.3 1021.6,471.4 1025.2,471.4 1025.2,460.6 
			1135.8,457 1135.8,578.5 1185.7,578.4 1185.7,592.7 1225.3,573.2 1235.8,573.2 1235.8,513.4 1350.6,513.9 1350.4,548.7 
			1353.8,548.7 1353.8,566.5 1364.8,566.5 1364.8,576.8 1371.9,576.8 1372.4,477.9 1511.4,478.1 1511.4,608.5 1532.5,608.3 
			1532.3,502.7 1579.4,502.9 1579.4,541.5 1586.5,541.5 1586.5,524 1590.2,524 1590.2,491.2 1593.8,491.2 1611.6,443 1618.7,393.4 
			1626.8,443 1645.8,492.3 1650.9,492.3 1650.9,510 1654.5,510 1654.5,538.1 1657.5,538.1 1661.3,533.6 1672.4,533.6 1672.4,527.6 
			1676,527.6 1676,499.3 1679.7,499.3 1691.7,364.2 1704.6,496.5 1711.9,499.3 1711.9,510 1729.9,510 1729.9,524 1772.8,524 
			1772.8,534.5 1833.3,552.1 1833.3,598 1851.4,598 1851.4,609 1870.8,609 1870.8,596.8 1911.8,596.8 1911.8,515.7 2003.6,515.7 
			2003.6,562.4 2007.6,562.1 2007.6,546.9 2013.8,546.9 2015.9,471.5 2057.3,436.9 2096.6,473.6 2096.6,596.8 2146.2,624.9 
			2146.2,483.7 2174.2,483.7 2174.2,216.3 2301,216.3 2301,662.4 2342.7,662.4 2342.7,216.3 2459.7,216.3 2459.7,630.9 
			2475.6,630.9 2475.6,556.1 2545.5,556.1 2545.5,559.1 2554.5,559.1 2554.9,624.9 2586.5,624.9 2586.5,646.8 2618.1,646.8 
			2618.1,656.8 2678.4,656.8 2678.4,640.5 2678.7,640.5 2678.6,473.3 2748.9,473.3 2748.6,648 2795.7,648.1 2795.7,550.1 
			2868.4,550.1 2868.4,626.2 2891.6,626.3 2891.6,613 2897,613.1 2897,465.7 2931.8,477.5 2931.8,470.1 2947.9,470 2947.9,399.8 
			2952,395.9 2952,375.8 2966.3,375 3001.1,308.5 3003.9,184.1 3006.7,308.1 3038.9,377.9 3054.3,377.9 3054.3,397.9 3058.2,399.8 
			3058.2,469.8 3070.5,470 3070.5,575 3090.1,575 3090.1,534.5 3159.7,534.5 3159.7,668.3 3172.8,668.3 3172.8,627.3 3210.4,627.8 
			3210.4,599.8 3261.2,599.8 3261.2,450.3 3280.1,437.9 3280.1,394.1 3308.7,378.6 3310.3,309.1 3313.3,378.5 3343.4,392.9 
			3343.6,437.9 3362.5,447.1 3362.5,640.5 3406.9,640.5 3406.9,543.8 3438.5,543.8 3438.5,503.1 3467.1,503.1 3467.1,419 
			3536.7,419 3536.7,553.1 3571.7,553.1 3571.7,475.3 3650.7,475.3 3729.8,447.1 3729.8,578 3770.5,613.8 3770.5,764.6 -2.5,764.6 
					"/>
	</g>
</g>
</svg>
