<?xml version="1.0" encoding="utf-8"?>
<!-- Generator: Adobe Illustrator 23.0.1, SVG Export Plug-In . SVG Version: 6.00 Build 0)  -->
<svg version="1.1" id="Capa_1" xmlns="http://www.w3.org/2000/svg" xmlns:xlink="http://www.w3.org/1999/xlink" x="0px" y="0px"
	 viewBox="0 0 512 512" style="enable-background:new 0 0 512 512;" xml:space="preserve">
<style type="text/css">
	.st0{fill:#8894A7;}
</style>
<g>
	<g>
		<path class="st0" d="M332.8,204.8c-10.24,0-23.04,2.56-35.84,10.24c7.68,2.56,12.8,10.24,12.8,20.48c0,15.36-10.24,25.6-25.6,25.6
			c-7.68,0-15.36-5.12-20.48-12.8c-5.12,10.24-7.68,20.48-7.68,33.28c0,43.52,33.28,76.8,76.8,76.8s76.8-33.28,76.8-76.8
			C409.6,240.64,376.32,204.8,332.8,204.8z"/>
	</g>
</g>
<g>
	<g>
		<path class="st0" d="M486.4,102.4h-25.6l-23.04-43.52c0-5.12-5.12-7.68-10.24-7.68H289.28c-5.12,0-10.24,2.56-10.24,7.68
			L256,102.4H128V89.6c0-7.68-5.12-12.8-12.8-12.8H64c-7.68,0-12.8,5.12-12.8,12.8v12.8H25.6C10.24,102.4,0,112.64,0,128v307.2
			c0,15.36,10.24,25.6,25.6,25.6h460.8c15.36,0,25.6-10.24,25.6-25.6V128C512,112.64,501.76,102.4,486.4,102.4z M76.8,204.8
			c-12.8,0-25.6-10.24-25.6-25.6s10.24-25.6,25.6-25.6s25.6,10.24,25.6,25.6S92.16,204.8,76.8,204.8z M332.8,409.6
			c-71.68,0-128-56.32-128-128s56.32-128,128-128s128,56.32,128,128S404.48,409.6,332.8,409.6z"/>
	</g>
</g>
</svg>
