<?xml version="1.0" encoding="utf-8"?>
<!-- Generator: Adobe Illustrator 23.0.1, SVG Export Plug-In . SVG Version: 6.00 Build 0)  -->
<svg version="1.1" id="Capa_1" xmlns="http://www.w3.org/2000/svg" xmlns:xlink="http://www.w3.org/1999/xlink" x="0px" y="0px"
	 viewBox="0 0 512 512" style="enable-background:new 0 0 512 512;" xml:space="preserve">
<style type="text/css">
	.st0{fill:#25BAB2;}
</style>
<g>
	<g>
		<path class="st0" d="M332.8,204.8c-10.2,0-23,2.6-35.8,10.2c7.7,2.6,12.8,10.2,12.8,20.5c0,15.4-10.2,25.6-25.6,25.6
			c-7.7,0-15.4-5.1-20.5-12.8c-5.1,10.2-7.7,20.5-7.7,33.3c0,43.5,33.3,76.8,76.8,76.8s76.8-33.3,76.8-76.8
			C409.6,240.6,376.3,204.8,332.8,204.8z"/>
	</g>
</g>
<g>
	<g>
		<path class="st0" d="M486.4,102.4h-25.6l-23-43.5c0-5.1-5.1-7.7-10.2-7.7H289.3c-5.1,0-10.2,2.6-10.2,7.7l-23,43.5H128V89.6
			c0-7.7-5.1-12.8-12.8-12.8H64c-7.7,0-12.8,5.1-12.8,12.8v12.8H25.6C10.2,102.4,0,112.6,0,128v307.2c0,15.4,10.2,25.6,25.6,25.6
			h460.8c15.4,0,25.6-10.2,25.6-25.6V128C512,112.6,501.8,102.4,486.4,102.4z M76.8,204.8c-12.8,0-25.6-10.2-25.6-25.6
			s10.2-25.6,25.6-25.6s25.6,10.2,25.6,25.6S92.2,204.8,76.8,204.8z M332.8,409.6c-71.7,0-128-56.3-128-128s56.3-128,128-128
			s128,56.3,128,128S404.5,409.6,332.8,409.6z"/>
	</g>
</g>
</svg>
