<?xml version="1.0" encoding="UTF-8" standalone="no"?>
<svg
   xmlns:dc="http://purl.org/dc/elements/1.1/"
   xmlns:cc="http://creativecommons.org/ns#"
   xmlns:rdf="http://www.w3.org/1999/02/22-rdf-syntax-ns#"
   xmlns:svg="http://www.w3.org/2000/svg"
   xmlns="http://www.w3.org/2000/svg"
   xmlns:sodipodi="http://sodipodi.sourceforge.net/DTD/sodipodi-0.dtd"
   xmlns:inkscape="http://www.inkscape.org/namespaces/inkscape"
   data-name="Layer 1"
   viewBox="0 0 28.00016 25.012024"
   x="0px"
   y="0px"
   version="1.1"
   id="svg10"
   sodipodi:docname="roommate_icon.svg"
   width="28.00016"
   height="25.012024"
   inkscape:version="0.92.4 5da689c313, 2019-01-14">
  <metadata
     id="metadata16">
    <rdf:RDF>
      <cc:Work
         rdf:about="">
        <dc:format>image/svg+xml</dc:format>
        <dc:type
           rdf:resource="http://purl.org/dc/dcmitype/StillImage" />
        <dc:title>contact-people-users-friends-buddy</dc:title>
      </cc:Work>
    </rdf:RDF>
  </metadata>
  <defs
     id="defs14" />
  <sodipodi:namedview
     pagecolor="#ffffff"
     bordercolor="#666666"
     borderopacity="1"
     objecttolerance="10"
     gridtolerance="10"
     guidetolerance="10"
     inkscape:pageopacity="0"
     inkscape:pageshadow="2"
     inkscape:window-width="982"
     inkscape:window-height="484"
     id="namedview12"
     showgrid="false"
     inkscape:zoom="6.2933333"
     inkscape:cx="0.9704183"
     inkscape:cy="9.25"
     inkscape:window-x="8"
     inkscape:window-y="584"
     inkscape:window-maximized="0"
     inkscape:current-layer="svg10" />
  <title
     id="title2">contact-people-users-friends-buddy</title>
  <path
     d="M 22.70008,12.187023 A 6.987,6.987 0 0 0 14.00508,1.2790234 6.99,6.99 0 0 0 5.3000798,12.187023 9.931,9.931 0 0 0 7.9843768e-5,21.012023 v 3 a 1,1 0 0 0 0.999999956232,1 H 27.00008 a 1,1 0 0 0 1,-1 v -3 a 9.931,9.931 0 0 0 -5.3,-8.825 z m -4.7,-10.1749996 a 4.993,4.993 0 0 1 2.055,9.5459996 c -0.077,0.035 -0.154,0.067 -0.232,0.1 a 4.9,4.9 0 0 1 -0.761,0.237 c -0.05,0.011 -0.1,0.017 -0.151,0.027 a 5,5 0 0 1 -0.88,0.089 c -0.133,0 -0.267,-0.01 -0.4,-0.022 -0.05,0 -0.1,0 -0.15,-0.01 a 5.052,5.052 0 0 1 -1.635,-0.482 c -0.019,-0.009 -0.041,-0.008 -0.06,-0.016 -0.1,-0.048 -0.2,-0.09 -0.289,-0.144 0.008,-0.01 0.013,-0.021 0.021,-0.031 a 7.016,7.016 0 0 0 1.071,-1.9509996 l 0.031,-0.084 a 7.057,7.057 0 0 0 0.265,-1.029 c 0.009,-0.051 0.016,-0.1 0.024,-0.155 a 7.028,7.028 0 0 0 0.091,-1.075 7.028,7.028 0 0 0 -0.091,-1.073 c -0.008,-0.052 -0.015,-0.1 -0.024,-0.155 a 7.057,7.057 0 0 0 -0.265,-1.029 l -0.031,-0.084 a 7.016,7.016 0 0 0 -1.071,-1.951 c -0.008,-0.01 -0.013,-0.021 -0.021,-0.031 a 4.967,4.967 0 0 1 2.503,-0.677 z m -13.0000002,5 a 4.987,4.987 0 0 1 8.4390002,-3.612 c 0.058,0.056 0.115,0.112 0.171,0.17 a 5.134,5.134 0 0 1 0.474,0.575 c 0.044,0.062 0.084,0.128 0.125,0.192 a 4.927,4.927 0 0 1 0.367,0.675 c 0.025,0.057 0.044,0.115 0.066,0.172 a 4.882,4.882 0 0 1 0.248,0.8 c 0.007,0.03 0.009,0.06 0.015,0.091 a 4.708,4.708 0 0 1 0,1.882 c -0.006,0.031 -0.008,0.061 -0.015,0.091 a 4.882,4.882 0 0 1 -0.248,0.8 c -0.022,0.057 -0.041,0.115 -0.066,0.172 a 4.927,4.927 0 0 1 -0.367,0.674 c -0.041,0.064 -0.081,0.13 -0.125,0.192 a 5.134,5.134 0 0 1 -0.474,0.5749996 c -0.056,0.058 -0.113,0.114 -0.171,0.17 a 4.991,4.991 0 0 1 -1.381,0.932 c -0.081,0.037 -0.163,0.071 -0.246,0.1 a 5.026,5.026 0 0 1 -0.742,0.23 c -0.063,0.014 -0.128,0.022 -0.192,0.033 a 4.958,4.958 0 0 1 -0.823,0.083 H 9.9450798 a 4.958,4.958 0 0 1 -0.823,-0.083 c -0.064,-0.011 -0.129,-0.019 -0.192,-0.033 a 5.026,5.026 0 0 1 -0.742,-0.23 c -0.083,-0.033 -0.165,-0.067 -0.246,-0.1 a 5,5 0 0 1 -2.942,-4.5509996 z m -3,13.9999996 a 7.95,7.95 0 0 1 5.318,-7.536 6.978,6.978 0 0 0 5.3640002,0 8.037,8.037 0 0 1 0.974,0.431 c 0.208,0.107 0.4,0.229 0.6,0.352 0.13,0.081 0.262,0.16 0.387,0.249 0.193,0.137 0.375,0.286 0.554,0.439 0.115,0.1 0.229,0.2 0.337,0.3 0.165,0.156 0.32,0.321 0.469,0.49 0.107,0.122 0.211,0.246 0.31,0.374 0.131,0.168 0.256,0.34 0.372,0.517 0.1,0.15 0.189,0.306 0.277,0.462 0.1,0.172 0.192,0.344 0.276,0.523 0.084,0.179 0.158,0.375 0.23,0.566 0.063,0.166 0.13,0.331 0.182,0.5 0.07,0.232 0.119,0.472 0.168,0.712 0.03,0.142 0.069,0.281 0.091,0.425 a 8.269,8.269 0 0 1 0.091,1.196 v 2 H 2.0000798 Z m 24.0000002,2 h -6 v -2 c 0,-0.313 -0.018,-0.623 -0.046,-0.93 -0.008,-0.09 -0.022,-0.179 -0.032,-0.269 -0.027,-0.221 -0.058,-0.44 -0.1,-0.657 q -0.027,-0.139 -0.057,-0.279 -0.072,-0.334 -0.167,-0.662 c -0.021,-0.072 -0.04,-0.145 -0.062,-0.216 a 9.909,9.909 0 0 0 -1.205,-2.527 l -0.039,-0.057 q -0.258,-0.383 -0.551,-0.741 l -0.007,-0.009 c -0.2,-0.248 -0.417,-0.489 -0.645,-0.717 0.013,0 0.027,0 0.041,0 a 7.086,7.086 0 0 0 0.851,0.06 h 0.055 a 7.061,7.061 0 0 0 0.788,-0.051 c 0.082,-0.01 0.163,-0.025 0.245,-0.038 q 0.319,-0.049 0.63,-0.127 c 0.059,-0.015 0.119,-0.029 0.179,-0.046 a 6.813,6.813 0 0 0 0.8,-0.272 7.95,7.95 0 0 1 5.322,7.538 z"
     id="path4"
     inkscape:connector-curvature="0"
     style="fill:#ffffff" />
</svg>
